PathFileType	4	(X/Y/Z)	Patient4_TMGait_0pt5_01_left_08.trc.trc
DataRate	CameraRate	NumFrames	NumMarkers	Units	OrigDataRate	OrigDataStartFrame	OrigNumFrames
75.268817204301	75.268817204301	4	33	mm	75.268817204301	36	       141
Frame#	Time	L.ASIS			Sacral			L.Shoulder			Chest			R.Shoulder			Neck			R.ASIS			R.Thigh.Superior			R.Thigh.Lateral			R.Thigh.Inferior			R.Patella			L.Thigh.Superior			L.Thigh.Lateral			L.Thigh.Inferior			L.Patella			L.Shank.Superior			L.Shank.Lateral			L.Shank.Inferior			R.Shank.Superior			R.Shank.Lateral			R.Shank.Inferior			R.Heel			R.Midfoot.Superior			R.Midfoot.Lateral			R.Toe			L.Heel			L.Midfoot.Lateral			L.Midfoot.Superior			L.Toe			L.Elbow			L.Wrist			R.Elbow			R.Wrist			
		X1	Y1	Z1	X2	Y2	Z2	X3	Y3	Z3	X4	Y4	Z4	X5	Y5	Z5	X6	Y6	Z6	X7	Y7	Z7	X8	Y8	Z8	X9	Y9	Z9	X10	Y10	Z10	X11	Y11	Z11	X12	Y12	Z12	X13	Y13	Z13	X14	Y14	Z14	X15	Y15	Z15	X16	Y16	Z16	X17	Y17	Z17	X18	Y18	Z18	X19	Y19	Z19	X20	Y20	Z20	X21	Y21	Z21	X22	Y22	Z22	X23	Y23	Z23	X24	Y24	Z24	X25	Y25	Z25	X26	Y26	Z26	X27	Y27	Z27	X28	Y28	Z28	X29	Y29	Z29	X30	Y30	Z30	X31	Y31	Z31	X32	Y32	Z32	X33	Y33	Z33	

36	11.205000000000	713.893959795086	958.859061670264	308.599889337140	508.876810606747	993.693821058565	480.512736458975	648.979567821707	1431.283575654017	301.177059141751	769.396670115110	1360.185876998380	449.784304953671	699.546602918456	1427.021659624455	633.373837211035	665.918571775946	1488.542511110448	452.023648151235	744.138814467756	929.428264014105	580.970403892164	756.784174357498	717.345415350112	549.149714797718	664.431390411121	616.348646323588	613.120659022650	728.662939774072	552.925284180588	530.774093194033	712.502784970266	451.310956545898	541.065335083551	791.348170856815	763.750686900804	340.239958615372	726.134046036496	637.774682108886	273.797301888901	821.698572440573	572.309632358152	337.417865277510	832.789318469125	500.109353398449	343.983730705976	810.257324460924	425.114480697988	333.719279356738	729.470142719622	307.214074711411	275.577936586407	786.848103562303	197.678744889665	345.104161013250	648.377394824365	378.041113039575	549.482309582621	546.237285526155	310.796315994465	618.374292525806	543.716114197797	206.474872623858	558.675277312433	355.883662927436	84.981630621921	545.076722504989	536.683762928773	102.803213617302	571.255217613857	440.069993468791	59.303585897157	613.753273315070	642.922228094717	36.575708366953	593.309719376734	665.306347993310	37.530146919861	376.862491349725	743.267928434793	34.876093732171	299.619612363260	823.552664507135	98.089819047576	329.780458194984	953.792643337609	48.570379067201	308.661532247755	557.050432297389	1096.740404214636	171.436304642885	644.003499732437	848.580972703285	149.661030603014	685.499575441195	1083.114406918533	755.743650261720	817.027616820648	858.198933728164	749.394978916837	
37	11.218285714286	714.647444676442	960.079988306489	306.009316929215	508.721401233034	994.538194226717	477.242816264570	648.588864620983	1431.723935801032	297.241756711626	768.770847104072	1361.585683846884	446.460785132281	698.208669225742	1428.919113528622	629.557051581700	664.867368166806	1489.517307386066	447.896645618771	744.044599623796	930.521402584356	578.333118250122	760.536369339555	718.906758187797	546.704984741027	670.586205111288	616.306624921228	610.688499069733	736.739449997972	553.679168059378	528.749726350540	721.912237753329	450.328560593653	540.608026469088	791.147813361544	763.613802847702	337.840228265760	724.729110798603	638.047263454485	272.094898693956	819.032011119140	571.690572637901	336.351547347346	829.364938046290	499.650753227284	343.501765072447	806.568432875799	424.651594593361	333.199723473075	725.613742571975	307.106331577051	274.685440041076	781.493826026649	197.461520221474	345.049572916407	655.165263254666	378.200322555736	548.698408640689	550.298887782042	314.697459058393	616.906796332979	545.194102315582	209.951561085499	558.267995874677	353.606413894104	95.662977682855	544.247923420310	534.649123929216	104.488614472397	571.033651617373	436.085302453617	65.841033589345	613.145820856900	636.696250322193	36.022980007315	593.246262872950	658.887991680328	37.547412640283	376.694893841462	736.865064093362	34.903352965952	299.450138880003	817.056793495214	98.271205933692	329.656379965563	947.347165933516	49.013986071707	308.531380545947	559.652615595521	1095.934761036111	168.340603517784	647.079895507266	847.944474130290	147.094980922262	677.682599934338	1086.062523360004	753.286826047678	798.703318366170	854.936997967863	749.831692633679	
38	11.231571428571	715.260136336869	961.226006086496	303.502776480881	508.418807572982	995.378283950290	473.992457694588	648.388990494029	1432.209771172466	293.438230690444	768.160185078047	1362.917713582893	443.327730136964	696.739519220360	1430.654245783881	625.907249817283	663.860941652024	1490.434945162322	443.940685396572	743.792074130381	931.561621141248	575.747064264657	764.696295646320	720.730632741592	544.328721678034	677.469067981899	616.416129372930	608.413294895879	745.685466670353	554.726409841114	526.916232678847	732.275455805815	449.704606948692	540.319325664341	790.536774241388	763.264269254328	335.449686439740	722.843133851160	638.218635181683	270.348415803670	815.874541164267	570.969566707527	335.232737734525	825.452206790852	499.104030508895	342.895246159508	802.418788212376	424.125119328438	332.552117168911	721.263551554474	306.856573191241	273.894873465240	775.853599843648	197.166399784602	344.970263896307	663.041312196480	378.660473655485	548.047502152995	555.419471423960	319.096176031608	615.390666589922	547.701355346121	213.995506909104	557.820741880548	352.580080558860	107.786759310059	542.977144404144	533.242806800704	106.538166025012	570.648952764724	432.775958529534	73.543314282536	612.258935209309	630.408159199586	35.270743990280	593.280344428954	652.306951465169	37.503927281625	376.569940493593	730.300446038500	34.842283264603	299.329657244686	810.431476913660	98.316434336114	329.586960193061	940.760371983928	49.264630349353	308.460612544466	562.192319766171	1095.360480505495	165.134763815890	650.371446111028	847.627254836643	144.566071164465	669.704472065290	1088.971574045118	750.832755737728	780.289225343028	852.347076529642	750.041562023305	
39	11.244857142857	715.713532335452	962.249792032051	301.085392786334	507.975365488180	996.145713435714	470.796897466758	648.382283571437	1432.676668583260	289.786199339484	767.566674490210	1364.117109011643	440.409968325148	695.138147488504	1432.175648368743	622.449131857873	662.907126938729	1491.245809010316	440.171584584543	743.380436911472	932.483391193117	573.231330735264	769.189353776244	722.808257160926	542.017082062075	684.974937442002	616.711764612949	606.319579826762	755.352863847473	556.102515192640	525.286631716549	743.431848433105	449.501270164483	540.154410136660	789.560404616141	762.724406646112	333.110414298981	720.584781541813	638.294135127261	268.555164638826	812.348518545256	570.171471648332	334.058715130480	821.163166953333	498.474746402192	342.157242025545	797.916933100063	423.534081936459	331.776461962497	716.529886403903	306.479741036238	273.163178132764	769.995808733730	196.797641486600	344.858984479886	671.875326260963	379.459403171637	547.485612141305	561.528920333924	323.970813951787	613.805419735095	551.209031739475	218.593737254164	557.287210190216	352.931414740030	121.234952947228	541.189723312021	532.461719307140	109.030348308487	570.073875104563	430.232998809505	82.412632370539	611.034250561352	624.082835635447	34.312986933729	593.429976334461	645.595851901778	37.419683395195	376.477954837401	723.602909567662	34.716987465293	299.245804065779	803.707831169647	98.239906452085	329.566631546247	934.059321634924	49.329981263924	308.435321116761	564.707891411725	1094.951746560190	161.792690564383	653.898131371373	847.558136247851	142.060824263523	661.543390409798	1091.773453797685	748.382258561866	761.904983606089	850.376329791266	750.012545749352	
